<svg width="579" height="86" viewBox="0 0 579 86" fill="none" xmlns="http://www.w3.org/2000/svg">
<g clip-path="url(#clip0)">
<rect width="579" height="86" fill="#FDB5F4"/>
<path d="M148.254 47.8497C174.589 39.4889 74.688 118.996 46.336 118.996C17.9839 118.996 -5 99.7327 -5 75.9704C-5 52.2081 17.9839 32.945 46.336 32.945C74.688 32.945 92.5747 65.5268 148.254 47.8497Z" fill="#66DBF7"/>
<path d="M273.915 45.4234C300.25 37.0626 203.544 119.3 175.192 119.3C146.84 119.3 89.0798 121.292 89.0798 97.5296C89.0798 81.8538 151.26 38.7892 179.612 38.7892C207.964 38.7892 218.235 63.1005 273.915 45.4234Z" fill="#66DBF7"/>
<path d="M417.337 52.1231C443.672 43.7623 346.966 126 318.614 126C290.262 126 224.778 120.987 224.778 97.2251C224.778 73.4629 282.194 38.4847 310.546 38.4847C338.898 38.4847 361.657 69.8002 417.337 52.1231Z" fill="#66DBF7"/>
<path d="M551.5 68C452.888 68 509.786 126 481.434 126C453.082 126 373.694 120.987 373.694 97.2251C373.694 73.4629 433.148 26 461.5 26C489.852 26 639.5 68 551.5 68Z" fill="#66DBF7"/>
</g>
<defs>
<clipPath id="clip0">
<rect width="579" height="86" fill="white"/>
</clipPath>
</defs>
</svg>
